<svg xmlns="http://www.w3.org/2000/svg" width="1095" height="1095" viewBox="0 0 1095 1095">

<path d="M587 285.92C594.78 289.19 604.15 287.79 611.05 293.5C611.29 299.91 608.78 306.42 607.3 312.66C605.52 320.18 604.6 328.62 601.5 335.69C599.03 333.19 596.88 330.46 593.77 328.69C580.24 321.02 559.05 325.87 551.76 340.12C550.14 344.58 548.52 349.04 546.9 353.5C550.58 353.68 554.25 353.86 557.93 354.04C562.39 356 571.4 355.64 576 353.85C578.06 354.06 580.12 354.28 582.17 354.5C582.32 362.33 580.89 377.41 582.35 384.27C582.85 386.64 584.6 388.59 585.12 390.97C583.58 392.31 582.04 393.65 580.5 394.98C568.83 395.1 557.17 395.21 545.5 395.33C543.63 405.85 545.08 423.24 545.09 434.5C545.1 445.17 545.11 455.83 545.09 466.5C545.08 475.12 544.75 483.75 546.39 492.25C547.29 496.93 549.57 501.03 550.88 505.5C532.41 505.5 513.95 505.5 495.48 505.5C497.67 500.31 500.37 495.81 500.05 490C502.84 478.57 501.1 465.22 501.1 453.5C501.1 441.17 501.1 428.83 501.1 416.5C501.1 374.81 494.7 325.74 534.36 298.9C539.66 295.32 545.68 292.28 551.79 290.35C563.62 286.6 574.71 286.31 587 285.92ZM936.9 449.19C936.87 455.18 937.79 461.32 941.85 465.95C948.71 474.39 961.4 469.42 968.5 464.12C970.94 475.25 973.37 486.37 975.81 497.5C964.28 510.45 933.51 511.49 918.66 504.86C911.67 501.74 907.59 496.59 901.87 491.98C891.43 476.26 892.03 457.63 892.03 439.5C892.02 415.17 891.98 390.83 891.98 366.5C891.98 352.09 894.89 330.11 885.42 318.1C880.3 311.61 875.6 313.86 870.95 310.5C884.64 307.89 893.86 305.76 907 300.75C916.5 296.32 926 291.89 935.5 287.46C936.64 292.24 936.04 297.59 936.03 302.5C936.02 310.83 936.03 319.17 936.03 327.5C936.01 354.17 936.03 380.83 936.03 407.5C936.03 417.17 936 426.83 936.07 436.5C936.09 440.58 935.32 445.49 936.9 449.19ZM293.72 302.12C306.26 310.91 316.83 315.09 325.79 328.71C328.84 333.34 331.1 338.4 332.79 343.65C333.59 346.11 333.92 348.81 335.03 351.03C337.17 359.66 336.91 369.47 334.82 378.07C332.85 381.34 332.31 385.61 330.61 389.16C326.72 397.3 321.34 404.14 314.43 409.94C310.84 412.96 306.48 415.7 302.22 417.69C298.96 419.21 294.96 419.98 292.39 422.5C294.98 431.06 298.56 439.37 301.71 447.74C307.11 462.12 312.48 476.8 320.55 489.96C324.06 495.68 328.53 500.24 332.5 505.5C310.17 505.5 287.83 505.5 265.5 505.5C267.06 500.11 267.76 495.44 265.73 490C253.66 457.08 241.58 424.17 229.5 391.25C229.41 402.17 229.33 413.08 229.24 424C227.41 428.29 228.91 441.14 228.91 446.5C228.9 460.17 227.4 474.81 229.34 488.37C230.28 494.97 232.97 499.6 234.54 505.5C214.51 505.5 194.48 505.5 174.45 505.5C176.77 500.42 179.2 495.69 179.66 490C181.52 473.36 180.48 456.23 180.48 439.5C180.48 411.17 180.48 382.83 180.48 354.5C180.48 337.25 183.86 312.29 173.67 297.5C182.06 295.27 200.9 296.74 210.5 296.74C223.83 296.74 237.17 296.74 250.5 296.74C257.77 296.74 265.26 296.29 272.5 297.11C279.83 297.94 286.6 300.91 293.72 302.12ZM229.14 375C229.26 379.54 229.38 384.09 229.5 388.63C235.7 389.56 242.21 389.08 248.5 389.08C259.52 389.08 270.91 390.09 279.76 382.26C294.57 369.14 287.97 342.2 268.09 338.96C264.53 336.92 259.57 337.67 255.5 337.7C246.88 337.77 238.06 337.19 229.5 338.02C229.38 350.35 229.26 362.67 229.14 375ZM436.78 357.1C440.65 359.82 445.23 361.67 449.35 364.12C456.25 368.23 462.54 373.7 467.46 380.06C470.42 383.88 472.94 388.24 474.75 392.72C476.06 395.95 476.28 400.57 478.86 402.9C480.3 418.33 479.83 433.98 479.81 449.5C479.79 459.43 477.41 475.11 486.15 482.38C489.25 484.96 493.32 485.32 496.97 486.5C495.32 487.59 493.67 488.68 492.02 489.76C484.59 491.29 469.13 501.76 461.13 505.6C454.31 508.87 447.95 510.54 442.65 503.83C439.85 500.27 438.52 496.09 436.76 492C433.21 481.02 436.88 469.34 434.5 458.34C429 466.66 423.5 474.98 418 483.3C412.17 488.47 410.28 497.39 403.87 502.39C391.99 511.66 373.16 511.05 361.05 502.45C356.69 499.36 354.34 494.96 350.97 491C339.91 465.1 351.52 435.71 377 423.82C382.57 421.66 387.8 418.74 393.7 417.3C400.45 415.66 407.19 415.62 414 414.89C420.91 415.26 426.92 416.95 433.5 418.84C432.37 406.13 420.94 395.73 409 393.1C400.75 388.84 387.38 392.33 379.49 396C376.29 397.49 372.24 399.54 370.89 402.81C368.76 405.11 366.63 407.42 364.5 409.72C363.71 408.71 362.92 407.71 362.13 406.7C361.56 400.65 355.56 391.86 351.11 387.73C348.46 383.65 345.82 379.58 343.17 375.5C361.7 354.41 389.35 348.08 416.5 352.08C423.45 353.11 430.05 355.38 436.78 357.1ZM678 354.94C686.81 359.94 696.24 362.71 704.37 369.09C712.64 375.59 715.05 381.49 721.17 389C730.63 407.55 727.1 437.27 727.21 458C725.77 471.88 728.63 483.44 743.45 486.5C734.67 493.18 719.77 500.01 709.66 505.19C704.98 507.59 699.98 510.2 694.83 507.62C688.16 504.27 686.78 496.02 683.85 490C683.4 479.37 682.95 468.74 682.5 458.11C676.27 467.76 670.04 477.4 663.82 487.05C658.8 491.22 657.09 498.29 651.85 502.38C640.28 511.42 621.58 511.14 609.64 502.9C605.19 499.82 602.85 495.37 598.99 491.88C587.8 466.14 597.3 442.75 619 426.91C624.46 425.23 629.29 421.31 634.79 419.37C642.38 416.71 650.13 416.02 658 414.79C662.55 414.98 667.02 415.05 671.5 415.98C674.8 416.66 677.93 418.22 681.21 418.5C677.59 401.66 667.62 395.84 652 392.27C643.82 390.13 623.68 393.95 619.18 402C616.96 404.49 614.73 406.99 612.5 409.48C611.38 407.89 610.26 406.3 609.14 404.71C608.12 399.41 601.4 388.49 597.15 385.05C595.09 381.87 593.03 378.68 590.97 375.5C606.6 356.69 630.74 349.84 654.5 351.11C662.56 351.55 670.13 353.87 678 354.94ZM832 351.73C838.36 353.98 844.82 355.41 850.83 358.63C855.22 360.98 858.86 364.28 862.95 366.98C880.48 385.77 881.77 409 863.68 427.84C858.76 429.74 854.45 433.77 849.28 435.74C844.88 437.42 840.1 438.97 835.45 439.77C832.91 440.21 830.44 440.25 828 441.07C823.67 441.15 819.33 441.23 815 441.3C807.17 441.47 799.33 441.64 791.5 441.81C791.41 445.16 792.58 448.78 794.88 451.28C802.53 468.58 829.54 471.05 842.11 458C844.91 455.43 847.7 452.85 850.5 450.28C857 457.52 863.49 464.76 869.99 471.99C872.29 474.43 875.93 476.51 876.67 479.84C874.8 481.36 873.53 483.53 871.91 485.39C867.39 490.59 862.24 495.29 856.32 498.84C835.11 511.55 807.81 512.14 785.32 502.22C780.43 500.06 775.8 497.25 771.62 493.94C769.37 492.17 767.58 490.12 765.02 488.79C759.02 481.09 753.55 473.69 750.16 464.36C735.44 423.97 747.59 372.54 790.67 356.2C803.91 351.18 818.04 350.4 832 351.73ZM803.87 397.97C799.49 400.07 794.8 406.2 794.14 411C792.81 416 791.47 421 790.14 426C790.26 430.24 790.38 434.49 790.5 438.73C801.68 439.84 824.08 428.64 828.85 418C830.64 415.06 832.35 411.93 832.94 408.5C833.33 406.21 833.47 403.81 833.19 401.5C831.27 385.81 812.05 390.8 803.87 397.97ZM414 423.16C404.09 425.2 392.39 441.04 393.08 451C392.94 456.24 393.93 461.64 398.86 464.31C402.04 468.52 409.41 468.38 414 466.77C421.18 464.09 431.86 457.98 434.56 450.12C436.14 445.53 435.36 428.33 434.5 423.2C427.21 420.02 421.39 421.68 414 423.16ZM657 425.74C650.64 428.79 645.3 435.76 642.61 442.16C641.67 444.39 639.95 447.74 640.95 450C640.78 454.52 640.93 458.25 643.78 461.91C646.19 466.55 653.14 468.89 658 466.92C666.32 466.26 680.35 457.91 682.66 449.25C683.96 444.38 682.96 428.93 682.24 423.5C674.08 418.89 664.76 421.72 657 425.74ZM759 533.96C767.78 539.31 779.93 539.89 785.75 549.73C788.56 554.47 786.96 567.68 786.95 573.5C786.93 589.17 786.98 604.83 786.95 620.5C786.93 626.85 785.62 637.39 787.72 643.08C787.8 671.38 787.89 699.69 787.98 728C787.97 733.42 790.25 738.46 792.17 743.5C786.23 745.43 778.82 744.39 772.5 744.4C762.72 744.41 741.99 745.97 733.62 743.5C735.32 737.4 738.63 731.47 737.94 725C737.79 710.85 737.65 696.71 737.5 682.56C729 682.46 720.5 682.36 712 682.25C701.35 682.34 690.7 682.42 680.05 682.5C680.81 704.97 691.74 725.05 703.5 743.51C699.17 745.68 692.42 744.38 687.5 744.38C678.83 744.39 670.17 744.39 661.5 744.4C656.19 744.4 650.66 744.92 645.5 743.77C643.29 737.52 641.09 731.26 638.88 725C634.9 713.75 633.14 701.32 631.74 689.53C629.39 669.7 628.59 649.28 632.14 629.54C639.48 588.71 667.35 548.05 708.72 536.29C719.85 533.12 731.91 531.26 743.5 532.03C748.7 532.38 753.84 533.44 759 533.96ZM897.01 724.86C882.17 693.96 867.34 663.06 852.5 632.16C848.35 639.7 846.73 647.87 844.22 656C836.33 682.67 846.69 719.71 873.44 731.5C868.79 734.5 861.98 734.8 856.56 736.19C846.84 738.67 837.22 741.5 827.51 744.01C823.09 745.15 816.13 749.01 811.83 746.6C803.52 741.95 804.82 730.7 800.25 723.97C797.73 698.02 801.36 685.29 814.27 663.1C821.84 654.44 829.41 645.79 836.97 637.14C841.37 633.59 845.76 630.05 850.15 626.5C845.16 613.5 838.29 600.84 832.21 588.29C825.04 573.5 819.04 557.77 808.89 544.67C806.25 541.27 802.91 538.61 799.98 535.5C814.66 535.33 829.33 535.15 844 534.98C852.83 535.4 861.67 535.83 870.5 536.25C871.06 541.04 870.88 545.63 872.2 550.39C875.61 562.59 882.6 574.08 887.95 585.52C890.59 591.16 894.98 602.82 898.76 607.06C901.46 612.47 904.17 617.88 906.88 623.29C907.35 628.04 916.2 646.43 919.5 650.02C926.88 639.67 928.54 625.83 930.32 613.61C931.04 608.64 932.2 601.34 930.03 596.84C926.12 581.17 921.83 564.58 908.42 554.06C905.18 551.52 901.48 550.35 897.88 548.5C912.26 544.58 926.63 540.66 941 536.73C947.22 536.58 954.11 531.44 960.33 533.21C963.49 534.1 965.53 537.93 966.87 540.62C970.83 548.52 972.64 557.73 973 566.5C974.05 592.13 961.45 616.31 943.97 634.46C939.38 639.23 934.5 643.76 929.35 647.91C926.67 650.07 923.71 651.99 921.35 654.5C923.85 664.51 930.28 674.41 934.64 683.81C942.34 700.4 949.35 718.46 960.15 733.32C962.84 737.02 966.05 740.1 969.07 743.5C962.74 745.72 954.29 744.38 947.5 744.38C937.5 744.38 927.5 744.42 917.5 744.41C911.89 744.41 905.84 745.12 900.5 743.65C901.31 737.75 900.24 729.88 897.01 724.86ZM450 535.03C454.83 535.34 459.67 535.66 464.5 535.97C475.7 560.99 486.91 586.02 498.11 611.05C503.24 622.4 508.37 633.75 513.5 645.1C529.5 608.5 545.5 571.91 561.5 535.31C569.98 535.24 578.46 535.16 586.93 535.08C596.51 535.55 606.09 536.03 615.67 536.5C614.58 539.23 613.07 541.79 612.16 544.62C608.6 555.72 609.88 568.02 609.89 579.5C609.9 586.27 609.33 593.3 610.25 600C610.44 631.03 610.62 662.05 610.81 693.08C608.97 696.85 609.83 703.21 609.83 707.5C609.83 716.88 609.62 726.27 612.19 735.37C612.98 738.16 614.32 740.75 615.21 743.5C608.85 745.43 601.18 744.4 594.5 744.39C581.86 744.38 569.13 744.82 556.5 744.44C557.05 737.71 561.41 733.01 560.91 725C560.85 692.17 560.8 659.33 560.75 626.5C553.13 644.37 545.5 662.24 537.88 680.11C529.75 698.98 521.63 717.85 513.5 736.73C508.56 725.48 503.63 714.24 498.69 703C487.63 676.88 476.56 650.77 465.5 624.65C465.34 635.77 465.17 646.88 465.01 658C463.56 668.73 464.83 680.59 464.83 691.5C464.83 709.63 463.06 726.52 470.4 743.5C461.81 746.02 439.62 744.43 429.5 744.42C423.68 744.42 416.56 745.48 411.15 743.5C413.37 737.44 416.26 731.6 415.84 725C417.21 710 416.25 694.56 416.25 679.5C416.25 651.83 416.25 624.17 416.25 596.5C416.25 576.74 419.66 553.04 409.3 535.5C422.87 535.34 436.43 535.19 450 535.03ZM712 584.03C707.91 585.36 705.01 588.51 702.01 591.5C694.55 598.94 685.77 612.46 684.33 623C683.05 628.83 681.78 634.67 680.51 640.5C699.72 640.5 718.93 640.5 738.14 640.5C738.24 619.5 738.34 598.5 738.44 577.5C729.61 575.92 719.62 579.57 712 584.03Z" fill="#448a88" fill-rule="evenodd" stroke="#448a88" stroke-width="0.25" stroke-linejoin="round"></path>
<path d="M587 285.92C574.71 286.31 563.62 286.6 551.79 290.35C545.68 292.28 539.66 295.32 534.36 298.9C494.7 325.74 501.1 374.81 501.1 416.5C501.1 428.83 501.1 441.17 501.1 453.5C501.1 465.22 502.84 478.57 500.05 490C497.37 489.92 494.69 489.84 492.02 489.76C493.67 488.68 495.32 487.59 496.97 486.5C493.32 485.32 489.25 484.96 486.15 482.38C477.41 475.11 479.79 459.43 479.81 449.5C479.83 433.98 480.3 418.33 478.86 402.9C479.6 389.84 479 376.58 479 363.5C479 359.01 478.34 353.96 479.03 349.53C479.85 344.31 480.18 338.91 481.19 333.69C484.66 315.67 495.18 298.37 510.03 287.53C516.13 283.08 523.2 280.12 530.31 277.81C538.02 275.31 545.31 274 553.5 274C564.93 274 578.64 273.91 588 281.5C587.67 282.97 587.33 284.45 587 285.92ZM907 300.75C893.86 305.76 884.64 307.89 870.95 310.5C875.6 313.86 880.3 311.61 885.42 318.1C894.89 330.11 891.98 352.09 891.98 366.5C891.98 390.83 892.02 415.17 892.03 439.5C892.03 457.63 891.43 476.26 901.87 491.98C892.7 492.07 882.41 487.01 876.67 479.84C875.93 476.51 872.29 474.43 869.99 471.99C868.18 464.59 865.27 458.36 864.03 450.47C863.52 447.22 864.48 443.78 863.97 440.53C863.74 439.09 862.93 438.06 863.03 436.53C863.25 433.32 864.11 431.44 863.68 427.84C881.77 409 880.48 385.77 862.95 366.98C863.17 356.83 863 346.66 863 336.5C863 324.28 864.13 308.71 852.34 301.16C849.34 299.23 846.33 299.17 843 298.5C845.53 296.53 847.45 297.44 850.47 296.97C854.71 296.3 859.2 295.18 863.31 293.81C878.24 288.84 893.12 282.39 906.5 274C906.67 282.92 906.83 291.84 907 300.75ZM293.72 302.12C286.6 300.91 279.83 297.94 272.5 297.11C265.26 296.29 257.77 296.74 250.5 296.74C237.17 296.74 223.83 296.74 210.5 296.74C200.9 296.74 182.06 295.27 173.67 297.5C183.86 312.29 180.48 337.25 180.48 354.5C180.48 382.83 180.48 411.17 180.48 439.5C180.48 456.23 181.52 473.36 179.66 490C172.44 489.83 165.22 489.67 158 489.5C159.56 485.52 161.97 481.53 162.81 477.31C165.5 463.86 164 444.7 164 430.5C164 401.83 164 373.17 164 344.5C164 324.81 166.88 303.26 158 285.5C160.94 283.21 164.86 284 168.5 284C175.83 284 183.17 284 190.5 284C202.17 284 213.83 284 225.5 284C233.92 284 242.34 283.69 250.53 284.97C252.8 285.32 255.2 284.68 257.47 285.03C261.91 285.73 266.41 287.39 270.69 288.81C276.74 290.83 291.12 296.24 293.72 302.12ZM436.78 357.1C430.05 355.38 423.45 353.11 416.5 352.08C389.35 348.08 361.7 354.41 343.17 375.5C345.82 379.58 348.46 383.65 351.11 387.73C348.91 390.15 346.7 392.58 344.5 395C341.27 389.36 338.05 383.71 334.82 378.07C336.91 369.47 337.17 359.66 335.03 351.03C356.94 335.59 386.89 334.55 411.69 342.81C418.19 344.98 433.77 350.92 436.78 357.1ZM678 354.94C670.13 353.87 662.56 351.55 654.5 351.11C630.74 349.84 606.6 356.69 590.97 375.5C593.03 378.68 595.09 381.87 597.15 385.05C594.27 388.03 591.38 391.02 588.5 394C587.37 392.99 586.25 391.98 585.12 390.97C584.6 388.59 582.85 386.64 582.35 384.27C580.89 377.41 582.32 362.33 582.17 354.5C580.12 354.28 578.06 354.06 576 353.85C580.66 347.57 590.13 344.21 597.31 341.81C616.51 335.41 638.92 336.66 657.69 343.81C663.93 346.19 673.94 349.41 678 354.94ZM832 351.73C818.04 350.4 803.91 351.18 790.67 356.2C747.59 372.54 735.44 423.97 750.16 464.36C753.55 473.69 759.02 481.09 765.02 488.79C754.74 487.3 739.64 475.34 733.53 466.97C731.42 464.08 729.98 460.27 727.21 458C727.1 437.27 730.63 407.55 721.17 389C723.19 386.25 723.64 382.75 725.16 379.66C728.5 372.82 732.31 366.41 737 360.5C738.96 358.03 741.5 356.27 743.97 354.47C746.1 352.92 747.79 350.97 750.03 349.53C765.8 339.42 787.35 335.33 805.53 338.97C814.59 340.78 825.9 344.2 832 351.73ZM268.09 338.96C287.97 342.2 294.57 369.14 279.76 382.26C270.91 390.09 259.52 389.08 248.5 389.08C242.21 389.08 235.7 389.56 229.5 388.63C229.38 384.09 229.26 379.54 229.14 375C235.55 375 243.03 376.07 249.31 374.81C260.59 372.56 269.23 361.59 269.97 350.47C270.2 347.07 268.24 342.55 268.09 338.96ZM551.76 340.12C552.01 340.41 552.25 340.71 552.5 341C554.17 341 555.83 341 557.5 341C557.64 345.35 557.79 349.69 557.93 354.04C554.25 353.86 550.58 353.68 546.9 353.5C548.52 349.04 550.14 344.58 551.76 340.12ZM265.73 490C260.44 490 251.23 491.79 247 488.5C250.73 481.03 248.27 477.51 246.19 470.31C242.96 459.13 238.35 448.24 234.19 437.31C232.5 432.88 231.35 428.17 229.24 424C229.33 413.08 229.41 402.17 229.5 391.25C241.58 424.17 253.66 457.08 265.73 490ZM828.85 418C823.59 419.42 818.69 422.49 813.31 423.81C805.61 425.71 798.15 426 790.14 426C791.47 421 792.81 416 794.14 411C798.11 408.08 802.9 402.76 803.87 397.97C812.05 390.8 831.27 385.81 833.19 401.5C833.47 403.81 833.33 406.21 832.94 408.5C832.35 411.93 830.64 415.06 828.85 418ZM652 392.27C667.62 395.84 677.59 401.66 681.21 418.5C677.93 418.22 674.8 416.66 671.5 415.98C667.02 415.05 662.55 414.98 658 414.79C657.67 412.69 657.33 410.6 657 408.5C645.01 399.17 622.34 414.19 619 426.91C597.3 442.75 587.8 466.14 598.99 491.88C594.91 492.03 591.61 490.3 588 488.5C569.82 479.41 567.7 453.7 574.19 436.69C578.61 425.09 588.49 416.53 598.66 410.16C601.98 408.07 605.81 406.81 609.14 404.71C610.26 406.3 611.38 407.89 612.5 409.48C614.73 406.99 616.96 404.49 619.18 402C621.19 401.97 622.63 401.33 624.53 401.03C633.72 399.59 647.28 400.89 655.5 405C656.4 400.24 653.28 396.71 652 392.27ZM409 393.1C420.94 395.73 432.37 406.13 433.5 418.84C426.92 416.95 420.91 415.26 414 414.89C413.83 412.59 413.67 410.3 413.5 408C409.66 406.57 405.73 405.37 401.53 406.03C392.47 407.45 379.82 414.31 377 423.82C351.52 435.71 339.91 465.1 350.97 491C347.74 490.74 345.6 489.26 342.97 487.53C332.39 480.6 329.9 472.36 327.97 460.53C327.79 459.44 327.2 458.56 327.03 457.47C326.52 454.24 327.47 451.5 327.97 448.47C328.4 445.83 328.44 443.29 329.19 440.69C333.49 425.79 347.83 412.06 362.13 406.7C362.92 407.71 363.71 408.71 364.5 409.72C366.63 407.42 368.76 405.11 370.89 402.81C374.41 403.02 377.15 401.56 380.53 401.03C390.76 399.43 403.09 401.32 412.5 405C412.5 400.68 410.09 397.26 409 393.1ZM414 466.77C413.83 458.52 413.67 450.26 413.5 442C408.62 449.44 403.74 456.87 398.86 464.31C393.93 461.64 392.94 456.24 393.08 451C400.08 450.41 412.11 441.45 413.81 434.31C414.63 430.88 414 426.68 414 423.16C421.39 421.68 427.21 420.02 434.5 423.2C435.36 428.33 436.14 445.53 434.56 450.12C431.86 457.98 421.18 464.09 414 466.77ZM658 466.92C657.83 458.95 657.67 450.97 657.5 443C653.38 445.16 647.58 457.51 643.78 461.91C640.93 458.25 640.78 454.52 640.95 450C648.78 446.12 662.39 435.67 657 425.74C664.76 421.72 674.08 418.89 682.24 423.5C682.96 428.93 683.96 444.38 682.66 449.25C680.35 457.91 666.32 466.26 658 466.92ZM815 441.3C819.33 441.23 823.67 441.15 828 441.07C829.3 445.72 838.83 453.57 842.11 458C829.54 471.05 802.53 468.58 794.88 451.28C800.52 450.67 813.08 447.32 815 441.3ZM941.85 465.95C937.79 461.32 936.87 455.18 936.9 449.19C937.43 448.79 937.97 448.4 938.5 448C939.62 453.98 940.73 459.97 941.85 465.95ZM436.76 492C433.93 492.04 431.39 493.42 428.53 492.97C423.94 492.24 420.25 486.92 418 483.3C423.5 474.98 429 466.66 434.5 458.34C436.88 469.34 433.21 481.02 436.76 492ZM683.85 490C675.1 492.37 670.64 495.41 663.82 487.05C670.04 477.4 676.27 467.76 682.5 458.11C682.95 468.74 683.4 479.37 683.85 490ZM759 533.96C753.84 533.44 748.7 532.38 743.5 532.03C731.91 531.26 719.85 533.12 708.72 536.29C667.35 548.05 639.48 588.71 632.14 629.54C628.59 649.28 629.39 669.7 631.74 689.53C633.14 701.32 634.9 713.75 638.88 725C633.09 725 627.29 725 621.5 725C617.6 720.19 614.67 707.53 613.19 701.31C612.52 698.51 612.35 695.55 610.81 693.08C610.62 662.05 610.44 631.03 610.25 600C612.73 596.33 613.57 590.93 615.19 586.69C618.52 577.95 623.11 568.63 628.53 561.03C640 544.98 655.96 530.33 674.69 523.19C681.97 520.41 689.93 518.22 697.53 517.03C699.15 516.78 700.85 517.22 702.47 516.97C709.04 515.94 714.96 515.94 721.53 516.97C723.15 517.22 724.85 516.78 726.47 517.03C736.97 518.68 753.71 523.85 759 533.96ZM941 536.73C926.63 540.66 912.26 544.58 897.88 548.5C901.48 550.35 905.18 551.52 908.42 554.06C921.83 564.58 926.12 581.17 930.03 596.84C922.82 606.02 916.16 615.93 906.88 623.29C904.17 617.88 901.46 612.47 898.76 607.06C899.84 604.05 899.55 601.62 900.03 598.53C903.01 579.52 898.1 558.73 886 543.5C883.39 540.22 879.84 537.35 876.34 535.16C874.18 533.8 870.85 533.27 869.5 532C889.5 526.67 909.5 521.33 929.5 516C935.91 520.02 940.31 529.26 941 536.73ZM450 535.03C436.43 535.19 422.87 535.34 409.3 535.5C419.66 553.04 416.25 576.74 416.25 596.5C416.25 624.17 416.25 651.83 416.25 679.5C416.25 694.56 417.21 710 415.84 725C406.89 724.83 397.95 724.67 389 724.5C390.28 722.46 391.94 720.6 392.81 718.31C394.55 713.76 394.29 709.23 395.03 704.53C397.15 690.97 396 676.36 396 662.5C396 635.5 396 608.5 396 581.5C396 567.96 397.11 553.71 395.03 540.47C394.73 538.52 395.27 536.48 394.97 534.53C394.12 529.14 391.09 524.57 390 519.5C407.5 519.33 425 519.17 442.5 519C445 524.34 447.5 529.69 450 535.03ZM586.93 535.08C578.46 535.16 569.98 535.24 561.5 535.31C545.5 571.91 529.5 608.5 513.5 645.1C508.37 633.75 503.24 622.4 498.11 611.05C502.92 602.66 506.71 592.81 510.19 583.69C515.04 570.96 521.96 559.04 526.81 546.31C529.23 539.96 531.8 533.44 534.84 527.34C535.9 525.23 536.87 521.8 539.03 520.53C543.4 517.96 549.63 519 554.5 519C565.03 519 582.35 517.57 592 519.5C589.91 524.84 587.55 529.3 586.93 535.08ZM844 534.98C829.33 535.15 814.66 535.33 799.98 535.5C802.91 538.61 806.25 541.27 808.89 544.67C819.04 557.77 825.04 573.5 832.21 588.29C838.29 600.84 845.16 613.5 850.15 626.5C845.76 630.05 841.37 633.59 836.97 637.14C832.47 633.48 829.16 618.66 824.5 614C821.36 617.87 820.35 622.69 818.81 627.31C815.2 638.16 813.06 651.58 814.27 663.1C801.36 685.29 797.73 698.02 800.25 723.97C800 724.32 799.75 724.66 799.5 725C798.5 725 797.5 725 796.5 725C794.17 725.67 791.83 726.33 789.5 727C788.99 727.33 788.48 727.67 787.98 728C787.89 699.69 787.8 671.38 787.72 643.08C794.95 634.18 802.34 624.27 811.5 617C815.04 614.19 818.77 611.73 822 608.5C817.2 595.58 809.52 583.84 804.5 571C801.6 563.58 797.64 556.38 794.19 549.31C792.13 545.1 790.38 540.7 787.84 536.66C785.29 532.59 782.28 528.88 779.47 525.03C777.77 522.7 775.3 521.97 774 519.5C779.57 518.39 785.77 519 791.5 519C801.83 519 812.17 519 822.5 519C828.48 519 837.18 517.46 842.5 520C841.49 525.44 843.57 529.67 844 534.98ZM684.33 623C693.55 622.83 702.78 622.67 712 622.5C712 613.63 711.2 604.33 712 595.5C712.16 593.74 713 592.27 713 590.5C713 588.28 712.03 586.33 712 584.03C719.62 579.57 729.61 575.92 738.44 577.5C738.34 598.5 738.24 619.5 738.14 640.5C718.93 640.5 699.72 640.5 680.51 640.5C681.78 634.67 683.05 628.83 684.33 623ZM498.69 703C493.9 705.19 494.47 713.78 490.5 717C487.85 711.71 485.91 706.18 483.81 700.69C480.92 693.1 477.08 685.9 474.19 678.31C471.86 672.2 469.15 662.86 465.01 658C465.17 646.88 465.34 635.77 465.5 624.65C476.56 650.77 487.63 676.88 498.69 703ZM560.91 725C551.27 724.83 541.64 724.67 532 724.5C534.65 719.21 537.03 714.43 537.97 708.47C538.38 705.87 537.62 703.13 538.03 700.53C538.47 697.74 539 695.45 539 692.5C539 688.56 539.92 683.57 537.88 680.11C545.5 662.24 553.13 644.37 560.75 626.5C560.8 659.33 560.85 692.17 560.91 725ZM897.01 724.86C888.51 724.91 880 724.95 871.5 725C871.24 723.11 871.85 722.31 871.97 720.47C872.11 718.32 871.25 714.85 870.81 712.69C869.22 704.75 864.62 697.33 861.19 690.31C858.13 684.04 855.79 677.27 852.16 671.34C849.29 666.68 848.61 659.63 844.22 656C846.73 647.87 848.35 639.7 852.5 632.16C867.34 663.06 882.17 693.96 897.01 724.86ZM712 682.25C720.5 682.36 729 682.46 737.5 682.56C737.65 696.71 737.79 710.85 737.94 725C727.29 724.83 716.65 724.67 706 724.5C713.54 709.42 712 698.86 712 682.25ZM925.03 789C933.12 789 947.73 786.79 953.97 792.53C961.87 799.8 960.81 824.15 951.97 830.47C944.43 835.86 933.76 834 925.03 834C925.03 819 925.03 804 925.03 789ZM963.03 789C976.19 789 989.34 789 1002.5 789C1004.67 799.17 1006.83 809.33 1009 819.5C1011.57 816.93 1011.4 811.39 1012.03 807.53C1013.05 801.32 1015.18 795.15 1016.5 789C1019.5 789 1022.5 789 1025.5 789C1026.04 792.99 1023.21 800.42 1022.19 804.69C1019.87 814.4 1017.98 824.38 1015 833.91C1010.33 833.91 1005.67 833.91 1001 833.91C997.17 820.27 993.33 806.64 989.5 793C989.31 793.97 989.32 796.54 988.78 797.28C987.39 799.19 978.52 797.02 976.07 797C976.07 799.98 976.07 802.96 976.07 805.93C979.36 805.93 982.64 805.93 985.93 805.93C985.93 808.87 985.93 811.8 985.93 814.73C982.62 814.73 979.31 814.73 976 814.73C976 818.07 976 821.4 976 824.74C980.67 824.74 985.33 824.74 990 824.74C990 827.81 990 830.89 990 833.97C981.01 833.97 972.02 833.97 963.03 833.97C963.03 818.98 963.03 803.99 963.03 789ZM937.04 795C937.04 806 937.04 817 937.04 828C939.36 827.87 941.76 827.86 943.47 825.97C946.1 823.05 946 817.13 946 813.5C946 805.4 947.59 795.6 937.04 795ZM1030.5 821C1034.18 821.79 1036.33 824.83 1039 827.5C1036.83 829.67 1034.67 831.83 1032.5 834C1029.15 833.28 1027.43 830.93 1025 828.5C1025.72 825.15 1028.07 823.43 1030.5 821Z" fill="#ffffff" fill-rule="evenodd" stroke="#ffffff" stroke-width="0.25" stroke-linejoin="round"></path>

</svg>